<svg xmlns="http://www.w3.org/2000/svg" xmlns:xlink="http://www.w3.org/1999/xlink" viewBox="0 0 85 113.75" version="1.1" x="0px" y="0px"><title>Shape</title><desc>Created with Sketch.</desc><g stroke="none" stroke-width="1" fill="none" fill-rule="evenodd"><g transform="translate(-926.000000, -136.000000)" fill="#000000"><path d="M999.441632,151.463774 C1000.84163,152.833774 1000.77163,155.243774 1000.44163,157.273774 C999.111632,164.993774 995.441632,171.963774 991.921632,178.763774 L996.071632,174.313774 C999.161632,170.993774 1002.51163,167.513774 1006.75163,166.623774 C1008.87163,166.173774 1010.75163,168.623774 1010.84163,171.023774 C1010.93163,173.423774 1009.76163,175.613774 1008.62163,177.643774 C1001.25442,190.784992 992.939051,203.371679 983.741632,215.303774 C981.953714,217.80073 979.872115,220.073702 977.541632,222.073774 C974.683751,224.377881 971.200171,225.771314 967.541632,226.073774 C966.321632,226.163774 966.021632,223.953774 966.941632,223.073774 C967.861632,222.193774 969.211632,222.173774 970.421632,221.943774 C974.361632,221.193774 977.351632,217.723774 979.971632,214.393774 C989.874527,202.090504 998.549228,188.84735 1005.87163,174.853774 C1006.44239,173.960683 1006.72191,172.912473 1006.67163,171.853774 C1006.50163,170.793774 1005.30163,169.913774 1004.52163,170.563774 C998.31578,175.680276 992.802745,181.583257 988.121632,188.123774 C987.535005,189.108676 986.731247,189.946637 985.771632,190.573774 C984.776678,191.165575 983.49299,190.880797 982.841632,189.923774 C982.161632,188.733774 982.841632,187.193774 983.541632,186.003774 C987.034965,179.903774 990.234965,173.613774 993.141632,167.133774 C994.611632,163.853774 996.031632,160.423774 996.141632,156.773774 C996.225494,156.224016 996.088928,155.663378 995.761632,155.213774 C995.091632,154.533774 994.031632,155.213774 993.361632,155.873774 C986.42095,162.866251 980.76772,171.027891 976.661632,179.983774 C975.931632,181.573774 975.151632,183.293774 973.661632,184.093774 C972.171632,184.893774 969.991632,184.043774 969.971632,182.253774 C970.024104,181.792522 970.152503,181.343124 970.351632,180.923774 C974.071632,169.663774 979.471632,158.773774 980.231632,146.823774 C980.351632,145.003774 979.631632,142.453774 978.011632,142.823774 C977.191632,143.013774 976.711632,143.943774 976.351632,144.823774 C971.778115,155.328649 967.808317,166.086167 964.461632,177.043774 C964.162203,178.335071 963.611759,179.554881 962.841632,180.633774 C962.11317,181.700993 960.739961,182.117117 959.541632,181.633774 C957.851632,180.703774 958.021632,178.013774 958.421632,175.973774 C960.402168,165.886207 961.827645,155.697556 962.691632,145.453774 C962.840929,144.530758 962.772441,143.585623 962.491632,142.693774 C962.141632,141.843774 961.231632,141.193774 960.491632,141.533774 C959.863602,141.950285 959.430772,142.603137 959.291632,143.343774 C955.466995,154.899813 952.610475,166.754036 950.751632,178.783774 C950.321632,181.293774 949.971632,183.923774 948.581632,185.923774 C947.191632,187.923774 944.581632,189.243774 942.581632,187.993774 C940.581632,186.743774 940.151632,183.733774 939.731632,181.183774 C938.860936,175.998674 936.852868,171.070712 933.851632,166.753774 C933.332198,165.800688 932.465493,165.084403 931.431632,164.753774 C930.893231,164.680201 930.352699,164.873186 929.982634,165.271106 C929.612568,165.669025 929.459249,166.222118 929.571632,166.753774 C931.709951,173.332901 932.806525,180.205892 932.821632,187.123774 C932.663403,190.836357 932.69678,194.55463 932.921632,198.263774 C933.311632,201.953774 934.491632,205.703774 936.921632,208.263774 C937.388451,208.621152 937.708535,209.136844 937.821632,209.713774 C937.891632,211.103774 935.901632,211.173774 934.821632,210.413774 C932.321632,208.613774 930.901632,205.413774 930.321632,202.173774 C929.893155,198.905726 929.739283,195.60752 929.861632,192.313774 C929.804684,183.893523 928.555617,175.523763 926.151632,167.453774 C925.489078,164.625744 927.20845,161.786781 930.021632,161.063774 C932.601632,160.523774 935.251632,162.003774 937.021632,164.153774 C938.69237,166.452476 939.982201,169.005126 940.841632,171.713774 L945.501632,184.013774 L949.701632,163.463774 C951.081632,156.713774 952.471632,149.923774 955.121632,143.613774 C955.821778,141.669762 956.937742,139.901966 958.391632,138.433774 C959.800664,137.020069 961.915501,136.579805 963.771632,137.313774 C966.971632,138.923774 966.971632,143.853774 966.451632,147.683774 L963.971632,166.333774 L970.971632,147.013774 C971.661725,144.729453 972.722526,142.574067 974.111632,140.633774 C975.581632,138.823774 977.821632,137.573774 979.971632,138.073774 C982.541632,138.663774 984.241632,141.573774 984.551632,144.453774 C984.861632,147.333774 984.091632,150.203774 983.321632,152.973774 L979.391632,167.173774 C983.391632,161.003774 987.611632,154.573774 993.841632,151.433774 C995.651632,150.533774 997.971632,150.013774 999.441632,151.463774 L999.441632,151.463774 Z" style="fill: rgb(255, 110, 30);"/></g></g></svg>